<svg width="32" height="32" viewBox="0 0 32 32" fill="none" xmlns="http://www.w3.org/2000/svg">
  <!-- 背景圆角矩形 -->
  <rect width="32" height="32" rx="6" fill="#409EFF"/>

  <!-- 主要图标 - 办公楼/组织架构 -->
  <g transform="translate(4, 4)">
    <!-- 建筑主体 -->
    <rect x="6" y="8" width="12" height="16" fill="white" rx="1"/>

    <!-- 窗户 -->
    <rect x="8" y="10" width="2" height="2" fill="#409EFF"/>
    <rect x="11" y="10" width="2" height="2" fill="#409EFF"/>
    <rect x="14" y="10" width="2" height="2" fill="#409EFF"/>

    <rect x="8" y="13" width="2" height="2" fill="#409EFF"/>
    <rect x="11" y="13" width="2" height="2" fill="#409EFF"/>
    <rect x="14" y="13" width="2" height="2" fill="#409EFF"/>

    <rect x="8" y="16" width="2" height="2" fill="#409EFF"/>
    <rect x="11" y="16" width="2" height="2" fill="#409EFF"/>
    <rect x="14" y="16" width="2" height="2" fill="#409EFF"/>

    <!-- 门 -->
    <rect x="11" y="19" width="2" height="5" fill="#409EFF"/>

    <!-- 顶部装饰 -->
    <rect x="5" y="6" width="14" height="2" fill="#67C23A" rx="1"/>

    <!-- 侧翼 -->
    <rect x="2" y="12" width="3" height="12" fill="#E6F7FF" rx="1"/>
    <rect x="19" y="12" width="3" height="12" fill="#E6F7FF" rx="1"/>
  </g>
</svg>
